<mxfile host="app.diagrams.net" modified="2020-09-30T20:08:31.653Z" agent="5.0 (Windows NT 10.0; Win64; x64) AppleWebKit/537.36 (KHTML, like Gecko) Chrome/85.0.4183.121 Safari/537.36" etag="b5qMBLYl-dkvqEIea9Ri" version="13.7.7" type="github">
  <diagram id="gTE47oasY02tEIrxy50E" name="Page-1">
    <mxGraphModel dx="1422" dy="762" grid="1" gridSize="10" guides="1" tooltips="1" connect="1" arrows="1" fold="1" page="1" pageScale="1" pageWidth="850" pageHeight="1100" math="0" shadow="0">
      <root>
        <mxCell id="0" />
        <mxCell id="1" parent="0" />
        <mxCell id="SV65m4lWNP2l0ciYZ4h4-7" value="Contacts App" style="rounded=0;whiteSpace=wrap;html=1;labelBackgroundColor=none;fontFamily=Helvetica;fontSize=24;fillColor=#C4A4BA;verticalAlign=top;fontStyle=4" vertex="1" parent="1">
          <mxGeometry x="250" y="40" width="410" height="560" as="geometry" />
        </mxCell>
        <mxCell id="SV65m4lWNP2l0ciYZ4h4-3" value="User" style="shape=umlActor;verticalLabelPosition=top;verticalAlign=bottom;html=1;outlineConnect=0;rotation=0;fontFamily=Helvetica;labelPosition=center;align=center;labelBackgroundColor=none;labelBorderColor=none;fontSize=16;fontStyle=0" vertex="1" parent="1">
          <mxGeometry x="20" y="300" width="40" height="110" as="geometry" />
        </mxCell>
        <mxCell id="SV65m4lWNP2l0ciYZ4h4-8" value="Register Account" style="ellipse;whiteSpace=wrap;html=1;labelBackgroundColor=none;fontFamily=Helvetica;fontSize=16;fillColor=#C2F9DC;" vertex="1" parent="1">
          <mxGeometry x="290" y="120" width="90" height="60" as="geometry" />
        </mxCell>
        <mxCell id="SV65m4lWNP2l0ciYZ4h4-9" value="Login to Account" style="ellipse;whiteSpace=wrap;html=1;labelBackgroundColor=none;fontFamily=Helvetica;fontSize=16;fillColor=#C2F9DC;" vertex="1" parent="1">
          <mxGeometry x="320" y="180" width="90" height="60" as="geometry" />
        </mxCell>
        <mxCell id="SV65m4lWNP2l0ciYZ4h4-15" value="" style="shape=datastore;whiteSpace=wrap;html=1;labelBackgroundColor=none;fontFamily=Helvetica;fontSize=16;fillColor=#f8cecc;strokeColor=#b85450;" vertex="1" parent="1">
          <mxGeometry x="740" y="200" width="80" height="150" as="geometry" />
        </mxCell>
        <mxCell id="SV65m4lWNP2l0ciYZ4h4-16" value="View Contacts" style="ellipse;whiteSpace=wrap;html=1;labelBackgroundColor=none;fontFamily=Helvetica;fontSize=16;fillColor=#C2F9DC;" vertex="1" parent="1">
          <mxGeometry x="290" y="290" width="90" height="60" as="geometry" />
        </mxCell>
        <mxCell id="SV65m4lWNP2l0ciYZ4h4-17" value="Add Contacts" style="ellipse;whiteSpace=wrap;html=1;labelBackgroundColor=none;fontFamily=Helvetica;fontSize=16;fillColor=#C2F9DC;" vertex="1" parent="1">
          <mxGeometry x="340" y="350" width="90" height="60" as="geometry" />
        </mxCell>
        <mxCell id="SV65m4lWNP2l0ciYZ4h4-18" value="Search Contacts" style="ellipse;whiteSpace=wrap;html=1;labelBackgroundColor=none;fontFamily=Helvetica;fontSize=16;fillColor=#C2F9DC;" vertex="1" parent="1">
          <mxGeometry x="290" y="410" width="90" height="60" as="geometry" />
        </mxCell>
        <mxCell id="SV65m4lWNP2l0ciYZ4h4-19" value="Edit Contacts" style="ellipse;whiteSpace=wrap;html=1;labelBackgroundColor=none;fontFamily=Helvetica;fontSize=16;fillColor=#C2F9DC;" vertex="1" parent="1">
          <mxGeometry x="320" y="470" width="90" height="60" as="geometry" />
        </mxCell>
        <mxCell id="SV65m4lWNP2l0ciYZ4h4-20" value="Delete Contacts" style="ellipse;whiteSpace=wrap;html=1;labelBackgroundColor=none;fontFamily=Helvetica;fontSize=16;fillColor=#C2F9DC;" vertex="1" parent="1">
          <mxGeometry x="280" y="530" width="90" height="60" as="geometry" />
        </mxCell>
        <mxCell id="SV65m4lWNP2l0ciYZ4h4-38" value="" style="endArrow=none;html=1;strokeWidth=2;fontFamily=Helvetica;fontSize=16;entryX=0;entryY=0.5;entryDx=0;entryDy=0;" edge="1" parent="1" target="SV65m4lWNP2l0ciYZ4h4-8">
          <mxGeometry width="50" height="50" relative="1" as="geometry">
            <mxPoint x="40" y="360" as="sourcePoint" />
            <mxPoint x="90" y="310" as="targetPoint" />
          </mxGeometry>
        </mxCell>
        <mxCell id="SV65m4lWNP2l0ciYZ4h4-41" value="" style="endArrow=none;html=1;strokeWidth=2;fontFamily=Helvetica;fontSize=16;entryX=0;entryY=0.5;entryDx=0;entryDy=0;exitX=0.5;exitY=0.5;exitDx=0;exitDy=0;exitPerimeter=0;" edge="1" parent="1" source="SV65m4lWNP2l0ciYZ4h4-3" target="SV65m4lWNP2l0ciYZ4h4-9">
          <mxGeometry width="50" height="50" relative="1" as="geometry">
            <mxPoint x="35" y="340" as="sourcePoint" />
            <mxPoint x="335" y="100" as="targetPoint" />
            <Array as="points">
              <mxPoint x="180" y="290" />
            </Array>
          </mxGeometry>
        </mxCell>
        <mxCell id="SV65m4lWNP2l0ciYZ4h4-42" value="" style="endArrow=none;html=1;strokeWidth=2;fontFamily=Helvetica;fontSize=16;entryX=0;entryY=0.5;entryDx=0;entryDy=0;exitX=0.5;exitY=0.5;exitDx=0;exitDy=0;exitPerimeter=0;" edge="1" parent="1" source="SV65m4lWNP2l0ciYZ4h4-3" target="SV65m4lWNP2l0ciYZ4h4-16">
          <mxGeometry width="50" height="50" relative="1" as="geometry">
            <mxPoint x="60" y="380" as="sourcePoint" />
            <mxPoint x="360" y="140" as="targetPoint" />
            <Array as="points">
              <mxPoint x="180" y="340" />
            </Array>
          </mxGeometry>
        </mxCell>
        <mxCell id="SV65m4lWNP2l0ciYZ4h4-43" value="" style="endArrow=none;html=1;strokeWidth=2;fontFamily=Helvetica;fontSize=16;entryX=0;entryY=0.5;entryDx=0;entryDy=0;" edge="1" parent="1" target="SV65m4lWNP2l0ciYZ4h4-17">
          <mxGeometry width="50" height="50" relative="1" as="geometry">
            <mxPoint x="40" y="360" as="sourcePoint" />
            <mxPoint x="370" y="150" as="targetPoint" />
          </mxGeometry>
        </mxCell>
        <mxCell id="SV65m4lWNP2l0ciYZ4h4-44" value="" style="endArrow=none;html=1;strokeWidth=2;fontFamily=Helvetica;fontSize=16;entryX=0;entryY=0.5;entryDx=0;entryDy=0;exitX=0.5;exitY=0.5;exitDx=0;exitDy=0;exitPerimeter=0;" edge="1" parent="1" source="SV65m4lWNP2l0ciYZ4h4-3" target="SV65m4lWNP2l0ciYZ4h4-18">
          <mxGeometry width="50" height="50" relative="1" as="geometry">
            <mxPoint x="80" y="400" as="sourcePoint" />
            <mxPoint x="380" y="160" as="targetPoint" />
            <Array as="points">
              <mxPoint x="170" y="390" />
            </Array>
          </mxGeometry>
        </mxCell>
        <mxCell id="SV65m4lWNP2l0ciYZ4h4-45" value="" style="endArrow=none;html=1;strokeWidth=2;fontFamily=Helvetica;fontSize=16;entryX=0;entryY=0.5;entryDx=0;entryDy=0;" edge="1" parent="1" target="SV65m4lWNP2l0ciYZ4h4-19">
          <mxGeometry width="50" height="50" relative="1" as="geometry">
            <mxPoint x="40" y="360" as="sourcePoint" />
            <mxPoint x="390" y="170" as="targetPoint" />
            <Array as="points">
              <mxPoint x="190" y="420" />
            </Array>
          </mxGeometry>
        </mxCell>
        <mxCell id="SV65m4lWNP2l0ciYZ4h4-46" value="" style="endArrow=none;html=1;strokeWidth=2;fontFamily=Helvetica;fontSize=16;entryX=0;entryY=0.5;entryDx=0;entryDy=0;" edge="1" parent="1" target="SV65m4lWNP2l0ciYZ4h4-20">
          <mxGeometry width="50" height="50" relative="1" as="geometry">
            <mxPoint x="40" y="360" as="sourcePoint" />
            <mxPoint x="400" y="180" as="targetPoint" />
            <Array as="points">
              <mxPoint x="160" y="450" />
            </Array>
          </mxGeometry>
        </mxCell>
        <mxCell id="SV65m4lWNP2l0ciYZ4h4-47" value="Password Hash" style="ellipse;whiteSpace=wrap;html=1;labelBackgroundColor=none;fontFamily=Helvetica;fontSize=16;fillColor=#C2F9DC;" vertex="1" parent="1">
          <mxGeometry x="540" y="120" width="90" height="60" as="geometry" />
        </mxCell>
        <mxCell id="SV65m4lWNP2l0ciYZ4h4-48" value="&amp;lt;&amp;lt;include&amp;gt;&amp;gt;" style="endArrow=none;dashed=1;html=1;dashPattern=1 3;strokeWidth=2;fontFamily=Helvetica;fontSize=16;entryX=0;entryY=0.5;entryDx=0;entryDy=0;labelBackgroundColor=#C2F9DC;exitX=1;exitY=0.5;exitDx=0;exitDy=0;" edge="1" parent="1" source="SV65m4lWNP2l0ciYZ4h4-8" target="SV65m4lWNP2l0ciYZ4h4-47">
          <mxGeometry width="50" height="50" relative="1" as="geometry">
            <mxPoint x="430" y="120" as="sourcePoint" />
            <mxPoint x="480" y="70" as="targetPoint" />
          </mxGeometry>
        </mxCell>
        <mxCell id="SV65m4lWNP2l0ciYZ4h4-49" value="Logout of Account" style="ellipse;whiteSpace=wrap;html=1;labelBackgroundColor=none;fontFamily=Helvetica;fontSize=16;fillColor=#C2F9DC;" vertex="1" parent="1">
          <mxGeometry x="350" y="240" width="90" height="60" as="geometry" />
        </mxCell>
        <mxCell id="SV65m4lWNP2l0ciYZ4h4-51" value="" style="endArrow=none;html=1;strokeWidth=2;fontFamily=Helvetica;fontSize=16;entryX=0;entryY=0.5;entryDx=0;entryDy=0;" edge="1" parent="1" source="SV65m4lWNP2l0ciYZ4h4-3" target="SV65m4lWNP2l0ciYZ4h4-49">
          <mxGeometry width="50" height="50" relative="1" as="geometry">
            <mxPoint x="50" y="370" as="sourcePoint" />
            <mxPoint x="300" y="160" as="targetPoint" />
          </mxGeometry>
        </mxCell>
        <mxCell id="SV65m4lWNP2l0ciYZ4h4-52" value="Check if Logged in" style="ellipse;whiteSpace=wrap;html=1;labelBackgroundColor=none;fontFamily=Helvetica;fontSize=16;fillColor=#C2F9DC;" vertex="1" parent="1">
          <mxGeometry x="540" y="290" width="90" height="60" as="geometry" />
        </mxCell>
        <mxCell id="SV65m4lWNP2l0ciYZ4h4-55" value="&amp;lt;&amp;lt;extends&amp;gt;&amp;gt;" style="endArrow=none;dashed=1;html=1;dashPattern=1 3;strokeWidth=2;fontFamily=Helvetica;fontSize=16;labelBackgroundColor=#C2F9DC;exitX=1;exitY=0.5;exitDx=0;exitDy=0;entryX=0;entryY=0.5;entryDx=0;entryDy=0;" edge="1" parent="1" target="SV65m4lWNP2l0ciYZ4h4-52">
          <mxGeometry width="50" height="50" relative="1" as="geometry">
            <mxPoint x="380" y="320" as="sourcePoint" />
            <mxPoint x="480" y="320" as="targetPoint" />
          </mxGeometry>
        </mxCell>
        <mxCell id="SV65m4lWNP2l0ciYZ4h4-57" value="" style="endArrow=none;html=1;labelBackgroundColor=#C2F9DC;strokeWidth=2;fontFamily=Helvetica;fontSize=16;entryX=0;entryY=0.5;entryDx=0;entryDy=0;" edge="1" parent="1" target="SV65m4lWNP2l0ciYZ4h4-15">
          <mxGeometry width="50" height="50" relative="1" as="geometry">
            <mxPoint x="440" y="270" as="sourcePoint" />
            <mxPoint x="490" y="220" as="targetPoint" />
          </mxGeometry>
        </mxCell>
        <mxCell id="SV65m4lWNP2l0ciYZ4h4-62" value="" style="endArrow=none;html=1;labelBackgroundColor=#C2F9DC;strokeWidth=2;fontFamily=Helvetica;fontSize=16;entryX=0.15;entryY=0.05;entryDx=0;entryDy=0;entryPerimeter=0;" edge="1" parent="1" target="SV65m4lWNP2l0ciYZ4h4-15">
          <mxGeometry width="50" height="50" relative="1" as="geometry">
            <mxPoint x="630" y="150" as="sourcePoint" />
            <mxPoint x="680" y="100" as="targetPoint" />
          </mxGeometry>
        </mxCell>
        <mxCell id="SV65m4lWNP2l0ciYZ4h4-63" value="" style="endArrow=none;html=1;labelBackgroundColor=#C2F9DC;strokeWidth=2;fontFamily=Helvetica;fontSize=16;entryX=0;entryY=0.3;entryDx=0;entryDy=0;" edge="1" parent="1" target="SV65m4lWNP2l0ciYZ4h4-15">
          <mxGeometry width="50" height="50" relative="1" as="geometry">
            <mxPoint x="410" y="210" as="sourcePoint" />
            <mxPoint x="460" y="160" as="targetPoint" />
          </mxGeometry>
        </mxCell>
        <mxCell id="SV65m4lWNP2l0ciYZ4h4-64" value="" style="endArrow=none;html=1;labelBackgroundColor=#C2F9DC;strokeWidth=2;fontFamily=Helvetica;fontSize=16;entryX=0;entryY=0.5;entryDx=0;entryDy=0;" edge="1" parent="1" target="SV65m4lWNP2l0ciYZ4h4-15">
          <mxGeometry width="50" height="50" relative="1" as="geometry">
            <mxPoint x="630" y="320" as="sourcePoint" />
            <mxPoint x="680" y="270" as="targetPoint" />
          </mxGeometry>
        </mxCell>
        <mxCell id="SV65m4lWNP2l0ciYZ4h4-65" value="" style="endArrow=none;html=1;labelBackgroundColor=#C2F9DC;strokeWidth=2;fontFamily=Helvetica;fontSize=16;entryX=0.15;entryY=0.95;entryDx=0;entryDy=0;entryPerimeter=0;" edge="1" parent="1" target="SV65m4lWNP2l0ciYZ4h4-15">
          <mxGeometry width="50" height="50" relative="1" as="geometry">
            <mxPoint x="430" y="380" as="sourcePoint" />
            <mxPoint x="480" y="330" as="targetPoint" />
            <Array as="points">
              <mxPoint x="600" y="370" />
            </Array>
          </mxGeometry>
        </mxCell>
        <mxCell id="SV65m4lWNP2l0ciYZ4h4-66" value="" style="endArrow=none;html=1;labelBackgroundColor=#C2F9DC;strokeWidth=2;fontFamily=Helvetica;fontSize=16;entryX=0.5;entryY=1;entryDx=0;entryDy=0;" edge="1" parent="1" target="SV65m4lWNP2l0ciYZ4h4-15">
          <mxGeometry width="50" height="50" relative="1" as="geometry">
            <mxPoint x="380" y="440" as="sourcePoint" />
            <mxPoint x="430" y="390" as="targetPoint" />
            <Array as="points">
              <mxPoint x="590" y="410" />
            </Array>
          </mxGeometry>
        </mxCell>
        <mxCell id="SV65m4lWNP2l0ciYZ4h4-67" value="" style="endArrow=none;html=1;labelBackgroundColor=#C2F9DC;strokeWidth=2;fontFamily=Helvetica;fontSize=16;" edge="1" parent="1">
          <mxGeometry width="50" height="50" relative="1" as="geometry">
            <mxPoint x="410" y="500" as="sourcePoint" />
            <mxPoint x="780" y="350" as="targetPoint" />
            <Array as="points">
              <mxPoint x="610" y="440" />
            </Array>
          </mxGeometry>
        </mxCell>
        <mxCell id="SV65m4lWNP2l0ciYZ4h4-68" value="" style="endArrow=none;html=1;labelBackgroundColor=#C2F9DC;strokeWidth=2;fontFamily=Helvetica;fontSize=16;entryX=0.85;entryY=0.95;entryDx=0;entryDy=0;entryPerimeter=0;" edge="1" parent="1" target="SV65m4lWNP2l0ciYZ4h4-15">
          <mxGeometry width="50" height="50" relative="1" as="geometry">
            <mxPoint x="370" y="560" as="sourcePoint" />
            <mxPoint x="420" y="510" as="targetPoint" />
            <Array as="points">
              <mxPoint x="610" y="480" />
            </Array>
          </mxGeometry>
        </mxCell>
      </root>
    </mxGraphModel>
  </diagram>
</mxfile>
